<svg xmlns="http://www.w3.org/2000/svg" viewBox="0 0 1200 780" role="img" aria-label="Управление бизнесом">
  <defs>
    <linearGradient id="bg" x1="0" y1="0" x2="1" y2="1">
      <stop offset="0%" stop-color="#3e2e47"/>
      <stop offset="50%" stop-color="#6a4f63"/>
      <stop offset="100%" stop-color="#9b786f"/>
    </linearGradient>
    <linearGradient id="card" x1="0" y1="0" x2="1" y2="1">
      <stop offset="0%" stop-color="#ffffff" stop-opacity="0.98"/>
      <stop offset="100%" stop-color="#f2f4f8" stop-opacity="0.92"/>
    </linearGradient>
    <linearGradient id="accent" x1="0" y1="0" x2="1" y2="1">
      <stop offset="0%" stop-color="#4f8fff"/>
      <stop offset="100%" stop-color="#63d2ff"/>
    </linearGradient>
    <filter id="shadow" x="-20%" y="-20%" width="140%" height="160%">
      <feDropShadow dx="0" dy="12" stdDeviation="16" flood-color="#1f1326" flood-opacity="0.35"/>
    </filter>
  </defs>

  <rect width="1200" height="780" fill="url(#bg)"/>
  <circle cx="1020" cy="120" r="210" fill="#ffffff" opacity="0.07"/>
  <circle cx="180" cy="650" r="280" fill="#ffffff" opacity="0.05"/>

  <text x="90" y="108" fill="#ffffff" font-family="Segoe UI, Arial, sans-serif" font-size="54" font-weight="700">
    Управление бизнесом
  </text>
  <text x="90" y="150" fill="#f5eaf1" font-family="Segoe UI, Arial, sans-serif" font-size="26" opacity="0.95">
    Планируйте проекты, задачи и команду в одном месте
  </text>

  <g filter="url(#shadow)">
    <rect x="90" y="210" width="720" height="460" rx="26" fill="url(#card)"/>
  </g>

  <rect x="120" y="250" width="660" height="52" rx="14" fill="#eef1f7"/>
  <rect x="140" y="268" width="220" height="16" rx="8" fill="#9ea7bb"/>
  <rect x="610" y="264" width="140" height="24" rx="12" fill="url(#accent)"/>

  <g>
    <rect x="140" y="330" width="280" height="150" rx="16" fill="#f7f9fc"/>
    <rect x="450" y="330" width="310" height="150" rx="16" fill="#f7f9fc"/>
    <rect x="140" y="505" width="620" height="130" rx="16" fill="#f7f9fc"/>
  </g>

  <g>
    <rect x="168" y="360" width="18" height="90" rx="8" fill="#6aa7ff"/>
    <rect x="196" y="388" width="18" height="62" rx="8" fill="#7ec1ff"/>
    <rect x="224" y="344" width="18" height="106" rx="8" fill="#4f8fff"/>
    <rect x="252" y="374" width="18" height="76" rx="8" fill="#96d5ff"/>
    <path d="M294 426h96" stroke="#ccd3e2" stroke-width="10" stroke-linecap="round"/>
    <path d="M294 452h72" stroke="#d7ddec" stroke-width="10" stroke-linecap="round"/>
  </g>

  <g>
    <circle cx="490" cy="376" r="16" fill="#4f8fff"/>
    <circle cx="558" cy="376" r="16" fill="#7ec1ff"/>
    <circle cx="626" cy="376" r="16" fill="#4f8fff"/>
    <circle cx="694" cy="376" r="16" fill="#7ec1ff"/>
    <path d="M490 416h204" stroke="#d6dceb" stroke-width="10" stroke-linecap="round"/>
    <path d="M490 442h146" stroke="#e1e6f2" stroke-width="10" stroke-linecap="round"/>
  </g>

  <g>
    <rect x="168" y="540" width="190" height="18" rx="9" fill="#bcc5d8"/>
    <rect x="168" y="572" width="150" height="14" rx="7" fill="#d6dcec"/>
    <rect x="404" y="540" width="328" height="18" rx="9" fill="#bcc5d8"/>
    <rect x="404" y="572" width="280" height="14" rx="7" fill="#d6dcec"/>
    <rect x="404" y="600" width="240" height="14" rx="7" fill="#dfe5f1"/>
  </g>

  <g filter="url(#shadow)">
    <rect x="860" y="280" width="260" height="300" rx="24" fill="url(#card)"/>
  </g>
  <text x="890" y="336" fill="#4a3a54" font-family="Segoe UI, Arial, sans-serif" font-size="26" font-weight="700">
    Команда
  </text>
  <g>
    <circle cx="920" cy="385" r="26" fill="#4f8fff"/>
    <rect x="956" y="370" width="134" height="12" rx="6" fill="#c2cbdd"/>
    <rect x="956" y="392" width="96" height="10" rx="5" fill="#d9dfec"/>

    <circle cx="920" cy="448" r="26" fill="#7ec1ff"/>
    <rect x="956" y="433" width="134" height="12" rx="6" fill="#c2cbdd"/>
    <rect x="956" y="455" width="108" height="10" rx="5" fill="#d9dfec"/>

    <circle cx="920" cy="511" r="26" fill="#5fa2ff"/>
    <rect x="956" y="496" width="134" height="12" rx="6" fill="#c2cbdd"/>
    <rect x="956" y="518" width="86" height="10" rx="5" fill="#d9dfec"/>
  </g>
</svg>

